<?xml version="1.0" ?><!DOCTYPE svg  PUBLIC '-//W3C//DTD SVG 1.1//EN'  'http://www.w3.org/Graphics/SVG/1.1/DTD/svg11.dtd'><svg height="2048px" style="shape-rendering:geometricPrecision; text-rendering:geometricPrecision; image-rendering:optimizeQuality; fill-rule:evenodd; clip-rule:evenodd" viewBox="0 0 2048 2048" width="2048px" xml:space="preserve" xmlns="http://www.w3.org/2000/svg" xmlns:xlink="http://www.w3.org/1999/xlink"><defs><style type="text/css">
   <![CDATA[
    .fil1 {fill:none}
    .fil0 {fill:#212121;fill-rule:nonzero}
   ]]>
  </style></defs><g id="Layer_x0020_1"><g id="_539547576"><g><g><path class="fil0" d="M1032.71 479.998c150.216,0 286.219,60.893 384.664,159.338 98.445,98.445 159.338,234.448 159.338,384.664 0,120.122 -38.9433,231.151 -104.884,321.159 -22.6914,-5.10591 -45.339,-10.7622 -67.8851,-16.8602 67.9666,-82.8201 108.768,-188.793 108.768,-304.298 0,-132.552 -53.7272,-252.554 -140.587,-339.414 -86.8595,-86.8595 -206.862,-140.587 -339.414,-140.587 -132.552,0 -252.554,53.7272 -339.414,140.587 -67.056,67.056 -114.358,153.868 -132.444,250.956 -19.1764,-13.4126 -38.0634,-27.1937 -56.5512,-41.3693 24.0166,-98.0741 74.6221,-185.714 143.745,-254.837 98.445,-98.445 234.448,-159.338 384.664,-159.338zm336.579 971.397c-92.6009,73.0253 -209.502,116.607 -336.579,116.607 -150.216,0 -286.219,-60.893 -384.664,-159.338 -94.6595,-94.6595 -154.589,-224.046 -159.058,-367.401 22.2827,15.5504 44.9197,30.6355 67.7682,45.2929 13.9961,107.535 63.5741,203.891 136.54,276.858 86.8595,86.8595 206.862,140.587 339.414,140.587 95.132,0 183.797,-27.6768 258.389,-75.4111 25.8862,8.06812 51.9721,15.7122 78.1902,22.8059z" id="_539548632"/><path class="fil0" d="M1032.71 479.998c89.2394,0 168.396,63.7583 224.23,166.838 52.5815,97.0737 85.1044,230.466 85.1044,377.164 0,99.6957 -15.0248,193.24 -41.1544,273.423 -12.8622,-4.19292 -25.6595,-8.4815 -38.3811,-12.8421 -7.37599,-2.52874 -14.7425,-5.09056 -22.0996,-7.68308 23.889,-73.6264 37.6335,-160.132 37.6335,-252.898 0,-136.07 -29.5618,-258.682 -77.354,-346.914 -44.5394,-82.226 -104.053,-133.087 -167.979,-133.087 -63.926,0 -123.439,50.8607 -167.979,133.087 -47.7922,88.232 -77.354,210.843 -77.354,346.914 0,17.2807 0.479528,34.3429 1.40906,51.1477 -21.9354,-11.9457 -43.7126,-24.1701 -65.3032,-36.6827 -0.0696851,-4.80709 -0.10748,-9.62835 -0.10748,-14.465 0,-146.698 32.5229,-280.09 85.1044,-377.164 55.8343,-103.08 134.991,-166.838 224.23,-166.838zm216.402 935.094c-55.2886,94.8627 -131.255,152.91 -216.402,152.91 -89.2394,0 -168.396,-63.7583 -224.23,-166.838 -31.4067,-57.9815 -55.6548,-128.923 -70.0926,-207.916 24.3803,13.1551 48.9437,25.9831 73.6595,38.4933 13.115,52.1528 31.0288,99.1914 52.6843,139.172 44.5394,82.226 104.053,133.087 167.979,133.087 57.7489,0 111.894,-41.5099 154.655,-110.15 11.1933,3.99567 22.4067,7.92048 33.6425,11.7721 9.33426,3.19961 18.704,6.35788 28.1044,9.4689z" id="_539548464"/><path class="fil0" d="M1064.71 518.305c0,-17.6728 -14.328,-32.0008 -32.0008,-32.0008 -17.6728,0 -32.0008,14.328 -32.0008,32.0008l0 661.985c21.2209,9.59292 42.5587,18.9709 64.0016,28.1138l0 -690.099zm-64.0016 801.8l0 209.59c0,17.6728 14.328,32.0008 32.0008,32.0008 17.6728,0 32.0008,-14.328 32.0008,-32.0008l0 -182.732c-21.4323,-8.72363 -42.7677,-17.6823 -64.0016,-26.8583z" id="_539548344"/><path class="fil0" d="M754.195 1056l784.212 0c17.6728,0 32.0008,-14.328 32.0008,-32.0008 0,-17.6728 -14.328,-32.0008 -32.0008,-32.0008l-892.083 0c15.0307,9.41576 30.1335,18.6425 45.2599,27.6886 20.6929,12.3744 41.5713,24.476 62.6103,36.313z" id="_539548200"/><path class="fil0" d="M606.045 725.332c-17.6728,0 -32.0008,14.328 -32.0008,32.0008 0,17.6728 14.328,32.0008 32.0008,32.0008l853.334 0c17.6728,0 32.0008,-14.328 32.0008,-32.0008 0,-17.6728 -14.328,-32.0008 -32.0008,-32.0008l-853.334 0z" id="_539547912"/></g><path class="fil0" d="M606.045 1258.67c-17.6728,0 -32.0008,14.328 -32.0008,32.0008 0,17.6728 14.328,32.0008 32.0008,32.0008l400.613 0c-29.6103,-12.7264 -59.0221,-25.878 -88.2178,-39.4051 -17.3776,-8.05158 -34.7008,-16.2508 -51.9638,-24.5965l-260.431 0zm777.551 64.0016l75.7831 0c17.6728,0 32.0008,-14.328 32.0008,-32.0008 0,-17.6728 -14.328,-32.0008 -32.0008,-32.0008l-269.149 0c23.987,8.97284 48.0827,17.6209 72.28,25.9146 39.7418,13.6228 80.2182,26.5323 121.086,38.087z" id="_539548272"/></g><path class="fil0" d="M1551.82 1459.23c17.3965,2.82992 33.7949,-8.97875 36.6248,-26.3752 2.82992,-17.3965 -8.97875,-33.7949 -26.3752,-36.6248 -5.25709,-0.871654 -18.6095,-3.62126 -30.3059,-6.02835 -8.89253,-1.83071 -16.9725,-3.49607 -19.2957,-3.93544 -76.004,-14.4106 -164.359,-38.5193 -260.329,-71.4166 -92.7934,-31.8071 -192.062,-71.628 -293.492,-118.623 -206.091,-95.4887 -382.673,-202.562 -501.561,-298.48 -108.768,-87.7524 -167.453,-160.57 -150.275,-197.647 8.15316,-17.5984 38.7827,-27.0036 86.4792,-28.9075 59.5193,-2.37638 140.521,8.81812 235.8,32.1992 17.1201,4.21063 34.415,-6.25512 38.6256,-23.3752 4.21063,-17.1201 -6.25512,-34.415 -23.3752,-38.6256 -100.91,-24.763 -187.989,-36.5681 -253.55,-33.9496 -72.73,2.90433 -122.682,24.261 -141.979,65.9091 -31.1126,67.1528 35.4709,167.002 168.275,274.147 122.684,98.9812 303.983,209.045 514.811,306.729 103.935,48.1548 205.211,88.8072 299.492,121.125 98.3304,33.7063 189.758,58.578 269.329,73.6654 5.01496,0.949607 11.335,2.25236 18.2941,3.68504 12.7004,2.61378 27.1973,5.59961 32.8075,6.52914z" id="_539548128"/><path class="fil0" d="M1581.91 1074.99c-14.2902,-10.285 -34.2154,-7.03938 -44.5004,7.25079 -10.285,14.2902 -7.03938,34.2154 7.25079,44.5004 76.6099,55.252 131.792,107.953 164.751,153.875 29.2937,40.8154 39.7855,73.1953 30.4595,93.3237 -7.38662,16.0158 -0.390945,34.9878 15.6248,42.3744 16.0158,7.38662 34.9878,0.390945 42.3744,-15.6248 19.461,-42.0024 6.85512,-96.6237 -36.7075,-157.323 -36.7607,-51.2185 -96.8694,-108.96 -179.253,-168.377z" id="_539547744"/><path class="fil0" d="M1569.29 1312.91c-9.11221,-15.0496 -28.7008,-19.8626 -43.7504,-10.7504 -15.0496,9.11221 -19.8626,28.7008 -10.7504,43.7504l51.8741 85.6666 -85.6642 51.8729c-15.0496,9.11221 -19.8626,28.7008 -10.7504,43.7504 9.11221,15.0496 28.7008,19.8626 43.7504,10.7504l110.321 -66.8032c0.903544,-0.437008 1.7941,-0.917717 2.66929,-1.44803 15.1169,-9.15355 19.9512,-28.8319 10.7976,-43.9489l-0.122835 0.0744095 -68.3741 -112.915z" id="_539547624"/></g></g><rect class="fil1" height="2048" width="2048"/></svg>