<?xml version="1.0" ?><!DOCTYPE svg  PUBLIC '-//W3C//DTD SVG 1.1//EN'  'http://www.w3.org/Graphics/SVG/1.1/DTD/svg11.dtd'><svg enable-background="new 0 0 48 48" height="48px" id="Layer_1" version="1.1" viewBox="0 0 48 48" width="48px" xml:space="preserve" xmlns="http://www.w3.org/2000/svg" xmlns:xlink="http://www.w3.org/1999/xlink"><g><circle cx="23.999" cy="6.062" fill="none" r="5.062" stroke="#000000" stroke-linecap="round" stroke-linejoin="round" stroke-miterlimit="10" stroke-width="2"/><path d="   M24,13.334c-6.795,0-12.304,6.45-12.304,14.405h24.606C36.303,19.784,30.795,13.334,24,13.334z" fill="none" stroke="#000000" stroke-linecap="round" stroke-linejoin="round" stroke-miterlimit="10" stroke-width="2"/><path d="   M47,34.198c-2.517-0.945-8.701-3.191-10.594-3.159c-2.396,0.042-13.339,0.001-13.339,0.001l-0.001,0.002   c-3.16-0.016-6.95,0.192-10.27,0.438c-1.457,0.107-2.545,1.317-2.431,2.701c0.114,1.385,1.394,2.426,2.842,2.312   c3.148-0.233,6.703-0.392,9.44-0.414c1.801,0.762,4.676,2.138,5.252,3.383c0,0-1.106,0.829-2.413,1.548   c-5.58,1.479-10.083,1.243-13.396-0.723c-4.888-2.897-5.803-8.787-5.823-8.92c-0.188-1.372-1.5-2.348-2.953-2.171   c-1.45,0.174-2.477,1.432-2.293,2.81c0.044,0.337,1.178,8.305,8.214,12.515c2.762,1.652,5.985,2.479,9.643,2.479   c3.014,0,6.32-0.562,9.907-1.685c3.691-0.736,13.625-2.44,17.577-1.947c0.217,0.027,0.43,0.021,0.638,0V34.198z" fill="none" stroke="#000000" stroke-linecap="round" stroke-linejoin="round" stroke-miterlimit="10" stroke-width="2"/></g></svg>