<?xml version="1.0" ?><!DOCTYPE svg  PUBLIC '-//W3C//DTD SVG 1.1//EN'  'http://www.w3.org/Graphics/SVG/1.1/DTD/svg11.dtd'><svg height="64px" id="_x33_5_x5F_machine_x5F_learning" style="enable-background:new 0 0 64 64;" version="1.1" viewBox="0 0 64 64" width="64px" xml:space="preserve" xmlns="http://www.w3.org/2000/svg" xmlns:xlink="http://www.w3.org/1999/xlink"><g><circle cx="32" cy="6" r="5" style="fill:none;stroke:#222829;stroke-width:2;stroke-miterlimit:10;"/><circle cx="51" cy="13" r="5" style="fill:none;stroke:#222829;stroke-width:2;stroke-miterlimit:10;"/><circle cx="58" cy="32" r="5" style="fill:none;stroke:#222829;stroke-width:2;stroke-miterlimit:10;"/><circle cx="51" cy="51" r="5" style="fill:none;stroke:#222829;stroke-width:2;stroke-miterlimit:10;"/><circle cx="13" cy="13" r="5" style="fill:none;stroke:#222829;stroke-width:2;stroke-miterlimit:10;"/><circle cx="6" cy="32" r="5" style="fill:none;stroke:#222829;stroke-width:2;stroke-miterlimit:10;"/><circle cx="13" cy="51" r="5" style="fill:none;stroke:#222829;stroke-width:2;stroke-miterlimit:10;"/><circle cx="32" cy="58" r="5" style="fill:none;stroke:#222829;stroke-width:2;stroke-miterlimit:10;"/><path d="M32,6   " style="fill:none;stroke:#222829;stroke-width:2;stroke-linecap:round;stroke-linejoin:round;stroke-miterlimit:10;"/><polygon points="   51,51 6,32 51,13 32,58 13,13 58,32 13,51 32,6  " style="fill:none;stroke:#222829;stroke-width:2;stroke-linecap:round;stroke-linejoin:round;stroke-miterlimit:10;"/><line style="fill:none;stroke:#222829;stroke-width:2;stroke-linejoin:round;stroke-miterlimit:10;" x1="29" x2="31" y1="28" y2="28"/><line style="fill:none;stroke:#222829;stroke-width:2;stroke-linejoin:round;stroke-miterlimit:10;" x1="33" x2="35" y1="28" y2="28"/><line style="fill:none;stroke:#222829;stroke-width:2;stroke-linejoin:round;stroke-miterlimit:10;" x1="35" x2="37" y1="32" y2="32"/><line style="fill:none;stroke:#222829;stroke-width:2;stroke-linejoin:round;stroke-miterlimit:10;" x1="31" x2="33" y1="32" y2="32"/><line style="fill:none;stroke:#222829;stroke-width:2;stroke-linejoin:round;stroke-miterlimit:10;" x1="27" x2="29" y1="32" y2="32"/><line style="fill:none;stroke:#222829;stroke-width:2;stroke-linejoin:round;stroke-miterlimit:10;" x1="33" x2="35" y1="36" y2="36"/><line style="fill:none;stroke:#222829;stroke-width:2;stroke-linejoin:round;stroke-miterlimit:10;" x1="29" x2="31" y1="36" y2="36"/></g></svg>