<?xml version="1.0" ?><!DOCTYPE svg  PUBLIC '-//W3C//DTD SVG 1.1//EN'  'http://www.w3.org/Graphics/SVG/1.1/DTD/svg11.dtd'><svg height="6.82666in" style="shape-rendering:geometricPrecision; text-rendering:geometricPrecision; image-rendering:optimizeQuality; fill-rule:evenodd; clip-rule:evenodd" viewBox="0 0 6.82666 6.82666" width="6.82666in" xml:space="preserve" xmlns="http://www.w3.org/2000/svg" xmlns:xlink="http://www.w3.org/1999/xlink"><defs><style type="text/css">
   <![CDATA[
    .fil0 {fill:none}
    .fil1 {fill:#212121;fill-rule:nonzero}
   ]]>
  </style></defs><g id="Layer_x0020_1"><g id="_223200864"><rect class="fil0" height="6.82666" id="_223200888" width="6.82666"/><rect class="fil0" height="5.12" id="_223200792" width="5.12" x="0.853331" y="0.853331"/></g><g id="_223200672"><path class="fil1" d="M3.41333 0.959996c0.137185,0 0.196811,0.101732 0.257295,0.204929 0.0298346,0.0509016 0.0600827,0.1025 0.0820669,0.10598 0.0215591,0.00341339 0.066315,-0.0363504 0.110465,-0.0755787 0.0893031,-0.0793583 0.177346,-0.157594 0.308252,-0.115059 0.130898,0.0425354 0.156169,0.157693 0.181799,0.274508 0.0125906,0.0574016 0.0253583,0.115583 0.0449567,0.125567 0.0199449,0.0101614 0.0746654,-0.0137717 0.12865,-0.0373819 0.109429,-0.0478661 0.217319,-0.0950512 0.32835,-0.014378 0.11124,0.0808268 0.0996929,0.198075 0.0879803,0.317008 -0.00576378,0.0585276 -0.0116063,0.117846 0.00423622,0.133689 0.0158425,0.0158425 0.0751614,0.01 0.133689,0.00423622 0.118933,-0.0117126 0.236181,-0.0232598 0.317008,0.0879803 0.0806732,0.111031 0.0334882,0.218921 -0.014378,0.32835 -0.0236102,0.0539843 -0.0475433,0.108705 -0.0373819,0.12865 0.00998425,0.0195984 0.0681654,0.0323661 0.125567,0.0449567 0.116815,0.0256299 0.231972,0.0509016 0.274508,0.181799 0.0425354,0.130906 -0.0357008,0.218949 -0.115059,0.308252 -0.0392283,0.0441496 -0.0789921,0.0889055 -0.0755787,0.110465 0.00348031,0.0219843 0.0550787,0.0522323 0.10598,0.0820669 0.103197,0.0604843 0.204929,0.12011 0.204929,0.257295 0,0.137185 -0.101732,0.196811 -0.204929,0.257295 -0.0509016,0.0298346 -0.1025,0.0600827 -0.10598,0.0820669 -0.00341339,0.0215591 0.0363504,0.066315 0.0755787,0.110465 0.0793583,0.0893031 0.157594,0.177346 0.115059,0.308252 -0.0425354,0.130898 -0.157693,0.156169 -0.274508,0.181799 -0.0574016,0.0125906 -0.115583,0.0253583 -0.125567,0.0449567 -0.0101614,0.0199449 0.0137717,0.0746654 0.0373819,0.12865 0.0478661,0.109429 0.0950512,0.217319 0.014378,0.32835 -0.0808268,0.11124 -0.198075,0.0996929 -0.317008,0.0879803 -0.0585276,-0.00576378 -0.117846,-0.0116063 -0.133689,0.00423622 -0.0158425,0.0158425 -0.01,0.0751614 -0.00423622,0.133689 0.0117126,0.118933 0.0232598,0.236181 -0.0879803,0.317008 -0.111031,0.0806732 -0.218921,0.0334882 -0.32835,-0.014378 -0.0539843,-0.0236102 -0.108705,-0.0475433 -0.12865,-0.0373819 -0.0195984,0.00998425 -0.0323661,0.0681654 -0.0449567,0.125567 -0.0256299,0.116815 -0.0509016,0.231972 -0.181799,0.274508 -0.130906,0.0425354 -0.218949,-0.0357008 -0.308252,-0.115059 -0.0441496,-0.0392283 -0.0889055,-0.0789921 -0.110465,-0.0755787 -0.0219843,0.00348031 -0.0522323,0.0550787 -0.0820669,0.10598 -0.0604843,0.103197 -0.12011,0.204929 -0.257295,0.204929 -0.137185,0 -0.196811,-0.101732 -0.257295,-0.204929 -0.0298346,-0.0509016 -0.0600827,-0.1025 -0.0820669,-0.10598 -0.0215591,-0.00341339 -0.066315,0.0363504 -0.110465,0.0755787 -0.0893031,0.0793583 -0.177346,0.157594 -0.308252,0.115059 -0.130898,-0.0425354 -0.156169,-0.157693 -0.181799,-0.274508 -0.0125906,-0.0574016 -0.0253583,-0.115583 -0.0449567,-0.125567 -0.0199449,-0.0101614 -0.0746654,0.0137717 -0.12865,0.0373819 -0.109429,0.0478661 -0.217319,0.0950512 -0.32835,0.014378 -0.11124,-0.0808268 -0.0996929,-0.198075 -0.0879803,-0.317008 0.00576378,-0.0585276 0.0116063,-0.117846 -0.00423622,-0.133689 -0.0158425,-0.0158425 -0.0751614,-0.01 -0.133689,-0.00423622 -0.118933,0.0117126 -0.236181,0.0232598 -0.317008,-0.0879803 -0.0806732,-0.111031 -0.0334882,-0.218921 0.014378,-0.32835 0.0236102,-0.0539843 0.0475433,-0.108705 0.0373819,-0.12865 -0.00998425,-0.0195984 -0.0681654,-0.0323661 -0.125567,-0.0449567 -0.116815,-0.0256299 -0.231972,-0.0509016 -0.274508,-0.181799 -0.0425354,-0.130906 0.0357008,-0.218949 0.115059,-0.308252 0.0392283,-0.0441496 0.0789921,-0.0889055 0.0755787,-0.110465 -0.00348031,-0.0219843 -0.0550787,-0.0522323 -0.10598,-0.0820669 -0.103197,-0.0604843 -0.204929,-0.12011 -0.204929,-0.257295 0,-0.137185 0.101732,-0.196811 0.204929,-0.257295 0.0509016,-0.0298346 0.1025,-0.0600827 0.10598,-0.0820669 0.00341339,-0.0215591 -0.0363504,-0.066315 -0.0755787,-0.110465 -0.0793583,-0.0893031 -0.157594,-0.177346 -0.115059,-0.308252 0.0425354,-0.130898 0.157693,-0.156169 0.274508,-0.181799 0.0574016,-0.0125906 0.115583,-0.0253583 0.125567,-0.0449567 0.0101614,-0.0199449 -0.0137717,-0.0746654 -0.0373819,-0.12865 -0.0478661,-0.109429 -0.0950512,-0.217319 -0.014378,-0.32835 0.0808268,-0.11124 0.198075,-0.0996929 0.317008,-0.0879803 0.0585276,0.00576378 0.117846,0.0116063 0.133689,-0.00423622 0.0158425,-0.0158425 0.01,-0.0751614 0.00423622,-0.133689 -0.0117126,-0.118933 -0.0232598,-0.236181 0.0879803,-0.317008 0.111031,-0.0806732 0.218921,-0.0334882 0.32835,0.014378 0.0539843,0.0236102 0.108705,0.0475433 0.12865,0.0373819 0.0195984,-0.00998425 0.0323661,-0.0681654 0.0449567,-0.125567 0.0256299,-0.116815 0.0509016,-0.231972 0.181799,-0.274508 0.130906,-0.0425354 0.218949,0.0357008 0.308252,0.115059 0.0441496,0.0392283 0.0889055,0.0789921 0.110465,0.0755787 0.0219843,-0.00348031 0.0522323,-0.0550787 0.0820669,-0.10598 0.0604843,-0.103197 0.12011,-0.204929 0.257295,-0.204929zm0.0739646 0.312433c-0.0292441,-0.0498976 -0.0580787,-0.0990945 -0.0739646,-0.0990945 -0.0158858,0 -0.0447205,0.0491969 -0.0739646,0.0990945 -0.0551024,0.0940118 -0.110949,0.189299 -0.232067,0.208476 -0.121531,0.0192441 -0.204055,-0.0540748 -0.285465,-0.126413 -0.0433425,-0.0385157 -0.0860748,-0.0764882 -0.100748,-0.0717205 -0.0146772,0.00476772 -0.0269055,0.0604882 -0.0393031,0.117004 -0.0233976,0.106669 -0.0471378,0.214783 -0.156618,0.270567 -0.109142,0.0556102 -0.210406,0.0113189 -0.310319,-0.0323819 -0.0531457,-0.023248 -0.105559,-0.0461693 -0.11835,-0.036874 -0.0125866,0.00914567 -0.00698819,0.066 -0.00131102,0.123669 0.0106969,0.108638 0.0215394,0.218748 -0.0650709,0.305358 -0.0866102,0.0866102 -0.19672,0.0757677 -0.305358,0.0650709 -0.0576693,-0.00567717 -0.114524,-0.0112756 -0.123669,0.00131102 -0.00929528,0.0127913 0.013626,0.0652047 0.036874,0.11835 0.0437008,0.0999134 0.0879921,0.201177 0.0323819,0.310319 -0.0557835,0.10948 -0.163898,0.13322 -0.270567,0.156618 -0.0565157,0.0123976 -0.112236,0.024626 -0.117004,0.0393031 -0.00476772,0.0146732 0.0332047,0.0574055 0.0717205,0.100748 0.0723386,0.0814094 0.145657,0.163933 0.126413,0.285465 -0.0191772,0.121118 -0.114465,0.176965 -0.208476,0.232067 -0.0498976,0.0292441 -0.0990945,0.0580787 -0.0990945,0.0739646 0,0.0158858 0.0491969,0.0447205 0.0990945,0.0739646 0.0940118,0.0551024 0.189299,0.110949 0.208476,0.232067 0.0192441,0.121531 -0.0540748,0.204055 -0.126413,0.285465 -0.0385157,0.0433425 -0.0764882,0.0860748 -0.0717205,0.100748 0.00476772,0.0146772 0.0604882,0.0269055 0.117004,0.0393031 0.106669,0.0233976 0.214783,0.0471378 0.270567,0.156618 0.0556102,0.109142 0.0113189,0.210406 -0.0323819,0.310319 -0.023248,0.0531457 -0.0461693,0.105559 -0.036874,0.11835 0.00914567,0.0125866 0.066,0.00698819 0.123669,0.00131102 0.108638,-0.0106969 0.218748,-0.0215394 0.305358,0.0650709 0.0866102,0.0866102 0.0757677,0.19672 0.0650709,0.305358 -0.00567717,0.0576693 -0.0112756,0.114524 0.00131102,0.123669 0.0127913,0.00929528 0.0652047,-0.013626 0.11835,-0.036874 0.0999134,-0.0437008 0.201177,-0.0879921 0.310319,-0.0323819 0.10948,0.0557835 0.13322,0.163898 0.156618,0.270567 0.0123976,0.0565157 0.024626,0.112236 0.0393031,0.117004 0.0146732,0.00476772 0.0574055,-0.0332047 0.100748,-0.0717205 0.0814094,-0.0723386 0.163933,-0.145657 0.285465,-0.126413 0.121118,0.0191772 0.176965,0.114465 0.232067,0.208476 0.0292441,0.0498976 0.0580787,0.0990945 0.0739646,0.0990945 0.0158858,0 0.0447205,-0.0491969 0.0739646,-0.0990945 0.0551024,-0.0940118 0.110949,-0.189299 0.232067,-0.208476 0.121531,-0.0192441 0.204055,0.0540748 0.285465,0.126413 0.0433425,0.0385157 0.0860748,0.0764882 0.100748,0.0717205 0.0146772,-0.00476772 0.0269055,-0.0604882 0.0393031,-0.117004 0.0233976,-0.106669 0.0471378,-0.214783 0.156618,-0.270567 0.109142,-0.0556102 0.210406,-0.0113189 0.310319,0.0323819 0.0531457,0.023248 0.105559,0.0461693 0.11835,0.036874 0.0125866,-0.00914567 0.00698819,-0.066 0.00131102,-0.123669 -0.0106969,-0.108638 -0.0215394,-0.218748 0.0650709,-0.305358 0.0866102,-0.0866102 0.19672,-0.0757677 0.305358,-0.0650709 0.0576693,0.00567717 0.114524,0.0112756 0.123669,-0.00131102 0.00929528,-0.0127913 -0.013626,-0.0652047 -0.036874,-0.11835 -0.0437008,-0.0999134 -0.0879921,-0.201177 -0.0323819,-0.310319 0.0557835,-0.10948 0.163898,-0.13322 0.270567,-0.156618 0.0565157,-0.0123976 0.112236,-0.024626 0.117004,-0.0393031 0.00476772,-0.0146732 -0.0332047,-0.0574055 -0.0717205,-0.100748 -0.0723386,-0.0814094 -0.145657,-0.163933 -0.126413,-0.285465 0.0191772,-0.121118 0.114465,-0.176965 0.208476,-0.232067 0.0498976,-0.0292441 0.0990945,-0.0580787 0.0990945,-0.0739646 0,-0.0158858 -0.0491969,-0.0447205 -0.0990945,-0.0739646 -0.0940118,-0.0551024 -0.189299,-0.110949 -0.208476,-0.232067 -0.0192441,-0.121531 0.0540748,-0.204055 0.126413,-0.285465 0.0385157,-0.0433425 0.0764882,-0.0860748 0.0717205,-0.100748 -0.00476772,-0.0146772 -0.0604882,-0.0269055 -0.117004,-0.0393031 -0.106669,-0.0233976 -0.214783,-0.0471378 -0.270567,-0.156618 -0.0556102,-0.109142 -0.0113189,-0.210406 0.0323819,-0.310319 0.023248,-0.0531457 0.0461693,-0.105559 0.036874,-0.11835 -0.00914567,-0.0125866 -0.066,-0.00698819 -0.123669,-0.00131102 -0.108638,0.0106969 -0.218748,0.0215394 -0.305358,-0.0650709 -0.0866102,-0.0866102 -0.0757677,-0.19672 -0.0650709,-0.305358 0.00567717,-0.0576693 0.0112756,-0.114524 -0.00131102,-0.123669 -0.0127913,-0.00929528 -0.0652047,0.013626 -0.11835,0.036874 -0.0999134,0.0437008 -0.201177,0.0879921 -0.310319,0.0323819 -0.10948,-0.0557835 -0.13322,-0.163898 -0.156618,-0.270567 -0.0123976,-0.0565157 -0.024626,-0.112236 -0.0393031,-0.117004 -0.0146732,-0.00476772 -0.0574055,0.0332047 -0.100748,0.0717205 -0.0814094,0.0723386 -0.163933,0.145657 -0.285465,0.126413 -0.121118,-0.0191772 -0.176965,-0.114465 -0.232067,-0.208476z" id="_223201032"/><path class="fil1" d="M3.41333 1.59999c0.50072,0 0.954067,0.202972 1.28222,0.531122 0.32815,0.32815 0.531122,0.781496 0.531122,1.28222 0,0.50072 -0.202972,0.954067 -0.531122,1.28222 -0.32815,0.32815 -0.781496,0.531122 -1.28222,0.531122 -0.50072,0 -0.954067,-0.202972 -1.28222,-0.531122 -0.32815,-0.32815 -0.531122,-0.781496 -0.531122,-1.28222 0,-0.50072 0.202972,-0.954067 0.531122,-1.28222 0.32815,-0.32815 0.781496,-0.531122 1.28222,-0.531122zm1.13138 0.681957c-0.289531,-0.289531 -0.689543,-0.468618 -1.13138,-0.468618 -0.441839,0 -0.84185,0.179087 -1.13138,0.468618 -0.289531,0.289531 -0.468618,0.689543 -0.468618,1.13138 0,0.441839 0.179087,0.84185 0.468618,1.13138 0.289531,0.289531 0.689543,0.468618 1.13138,0.468618 0.441839,0 0.84185,-0.179087 1.13138,-0.468618 0.289531,-0.289531 0.468618,-0.689543 0.468618,-1.13138 0,-0.441839 -0.179087,-0.84185 -0.468618,-1.13138z" id="_223200192"/><path class="fil1" d="M2.34736 3.82564l0 -0.824626 0.132862 0 0.276665 0.550646 0 -0.550646 0.127102 0 0 0.824626 -0.137276 0 -0.272252 -0.537783 0 0.537783 -0.127102 0zm0.68063 0l0 -0.824626 0.501882 0 0 0.139579 -0.365756 0 0 0.182783 0.339835 0 0 0.138811 -0.339835 0 0 0.224449 0.378043 0 0 0.139004 -0.514169 0zm0.72498 0l-0.161276 -0.824626 0.139965 0 0.101185 0.56639 0.123835 -0.56639 0.162622 0 0.118654 0.575988 0.104067 -0.575988 0.137276 0 -0.16435 0.824626 -0.145154 0 -0.134969 -0.616504 -0.133823 0.616504 -0.148031 0z" id="_223200552"/></g></g></svg>