<?xml version="1.0" encoding="utf-8"?>
<!-- Generator: Adobe Illustrator 18.1.0, SVG Export Plug-In . SVG Version: 6.00 Build 0)  -->
<svg version="1.1" id="els2_x5F_building" xmlns="http://www.w3.org/2000/svg" xmlns:xlink="http://www.w3.org/1999/xlink" x="0px"
	 y="0px" viewBox="0 0 595.3 841.9" enable-background="new 0 0 595.3 841.9" xml:space="preserve">
<path fill="none" stroke="#000000" stroke-width="5" stroke-miterlimit="10" d="M57.6,197.7c-7.4,0-14.9,7.4-14.9,14.9v282.8
	c0,8.9,7.4,14.9,14.9,14.9h506c7.4,0,14.9-6,14.9-14.9V212.6c0-8.9-7.4-14.9-14.9-14.9H57.6L57.6,197.7z"/>
<line fill="none" stroke="#000000" stroke-width="5" stroke-miterlimit="10" x1="310.6" y1="197.7" x2="310.6" y2="153.1"/>
<polyline fill="none" stroke="#000000" stroke-width="5" stroke-miterlimit="10" points="310.6,688.8 310.6,510.2 310.6,510.2 "/>
<path fill="none" stroke="#000000" stroke-width="5" stroke-miterlimit="10" d="M385.1,688.8c-58,0-90.8,0-148.8,0"/>
<g>
	<rect x="51.7" y="257.2" fill="none" width="516.4" height="215.8"/>
	<text transform="matrix(1 0 0 1 216.0953 334.1386)" font-family="'HelveticaCE-Regular'" font-size="89.292">FOR </text>
	<text transform="matrix(1 0 0 1 62.8062 441.29)" font-family="'HelveticaCE-Regular'" font-size="89.292">EVERYONE</text>
</g>
</svg>
