<?xml version="1.0" ?><!DOCTYPE svg  PUBLIC '-//W3C//DTD SVG 1.1//EN'  'http://www.w3.org/Graphics/SVG/1.1/DTD/svg11.dtd'><svg enable-background="new 0 0 512 512" height="512px" id="Layer_1" version="1.1" viewBox="0 0 512 512" width="512px" xml:space="preserve" xmlns="http://www.w3.org/2000/svg" xmlns:xlink="http://www.w3.org/1999/xlink"><g><path d="M114.333,93.5c-5.549,0-10.382,3-12.977,8H55c-3.85,0-7.5,2.15-7.5,6v1c0,3.85,3.65,8,7.5,8h46.356   c2.595,4,7.428,7,12.977,7c8.284,0,15-6.716,15-15C129.333,100.216,122.618,93.5,114.333,93.5z" fill="#333333"/><path d="M114.333,187.333c-5.549,0-10.382,3.167-12.977,8.167H55c-3.85,0-7.5,1.817-7.5,5.667v1   c0,3.85,3.65,8.333,7.5,8.333h46.356c2.595,4,7.428,6.833,12.977,6.833c8.284,0,15-6.716,15-15   C129.333,194.049,122.618,187.333,114.333,187.333z" fill="#333333"/><path d="M114.333,280.667c-5.549,0-10.382,3.833-12.977,7.833H55c-3.85,0-7.5,2.483-7.5,6.333v1   c0,3.85,3.65,7.667,7.5,7.667h46.356c2.595,5,7.428,7.167,12.977,7.167c8.284,0,15-6.716,15-15   C129.333,287.382,122.618,280.667,114.333,280.667z" fill="#333333"/><rect fill="#333333" height="49" width="15" x="74.5" y="318.5"/><rect fill="#333333" height="48" width="15" x="74.5" y="225.5"/><rect fill="#333333" height="49" width="15" x="74.5" y="131.5"/><path d="M114.333,374.5c-5.549,0-10.382,3-12.977,8H55c-3.85,0-7.5,2.15-7.5,6v1c0,3.85,3.65,8,7.5,8h46.356   c2.595,4,7.428,7,12.977,7c8.284,0,15-6.716,15-15C129.333,381.216,122.618,374.5,114.333,374.5z" fill="#333333"/><path d="M355.5,292.5h-173c-4.142,0-7.5-3.358-7.5-7.5s3.358-7.5,7.5-7.5h173c4.143,0,7.5,3.358,7.5,7.5   S359.643,292.5,355.5,292.5z" fill="#333333"/><path d="M355.5,337.5h-173c-4.142,0-7.5-3.358-7.5-7.5s3.358-7.5,7.5-7.5h173c4.143,0,7.5,3.358,7.5,7.5   S359.643,337.5,355.5,337.5z" fill="#333333"/><path d="M355.5,382.5h-173c-4.142,0-7.5-3.358-7.5-7.5s3.358-7.5,7.5-7.5h173c4.143,0,7.5,3.358,7.5,7.5   S359.643,382.5,355.5,382.5z" fill="#333333"/><path d="M355.5,427.5h-173c-4.142,0-7.5-3.358-7.5-7.5s3.358-7.5,7.5-7.5h173c4.143,0,7.5,3.358,7.5,7.5   S359.643,427.5,355.5,427.5z" fill="#333333"/><path d="M247.5,96.5h-65c-4.142,0-7.5,3.358-7.5,7.5s3.358,7.5,7.5,7.5h65V96.5z" fill="#333333"/><path d="M247.5,141.5h-65c-4.142,0-7.5,3.358-7.5,7.5s3.358,7.5,7.5,7.5h65V141.5z" fill="#333333"/><path d="M247.5,186.5h-65c-4.142,0-7.5,3.358-7.5,7.5s3.358,7.5,7.5,7.5h65V186.5z" fill="#333333"/><path d="M247.5,231.5h-65c-4.142,0-7.5,3.358-7.5,7.5s3.358,7.5,7.5,7.5h65V231.5z" fill="#333333"/><path d="M364.5,32.254c0-7.383-4.975-13.507-12-14.754h-102c7.025,1.248,12.09,7.371,12.09,14.754   c0,0.083-0.09,0.163-0.09,0.246l0,0v222.508l50.821-51.21l51.179,51.21V32.5l0,0C364.5,32.417,364.5,32.337,364.5,32.254z    M337.151,175.69l-23.287-12.242l-23.287,12.242l4.447-25.93l-18.839-18.364l26.035-3.784l11.643-23.591l11.643,23.592   l26.035,3.784l-18.839,18.364L337.151,175.69z" fill="#93B230"/><path d="M397,17.5h-21.01c2.473,4.378,3.874,9.421,3.874,14.754c0,0.083-0.005,0.164-0.006,0.246H397   c8.271,0,14.5,5.729,14.5,14v416c0,8.271-6.229,16-14.5,16H105c-8.271,0-15.5-7.729-15.5-16v-50h-15v50c0,16.5,14,31,30.5,31h292   c16.5,0,29.5-14.5,29.5-31v-416C426.5,30,413.5,17.5,397,17.5z" fill="#333333"/><path d="M89.5,46.5c0-8.271,7.229-14,15.5-14h142.682h0.17c0.001-0.083,0.012-0.163,0.012-0.246   c0-7.383-5.339-13.506-12.364-14.754H105c-16.5,0-30.5,12.5-30.5,29v40h15V46.5z" fill="#333333"/></g></svg>