<?xml version="1.0" ?><svg id="Layer_1" style="enable-background:new 0 0 64 64;" version="1.1" viewBox="0 0 64 64" xml:space="preserve" xmlns="http://www.w3.org/2000/svg" xmlns:xlink="http://www.w3.org/1999/xlink"><style type="text/css">
	.st0{clip-path:url(#SVGID_2_);}
	.st1{fill:#4F4F4F;}
</style><g><defs><rect height="64" id="SVGID_1_" width="64" x="0"/></defs><clipPath id="SVGID_2_"><use style="overflow:visible;" xlink:href="#SVGID_1_"/></clipPath><g class="st0"><path class="st1" d="M42,4H24v12h18V4z M40,14H26V6h14V14z"/><rect class="st1" height="2" width="18" x="24" y="18"/><path class="st1" d="M0,56h18V44H0V56z M2,46h14v8H2V46z"/><rect class="st1" height="2" width="18" y="58"/><path class="st1" d="M24,56h18V44H24V56z M26,46h14v8H26V46z"/><rect class="st1" height="2" width="18" x="24" y="58"/><path class="st1" d="M46,44v12h18V44H46z M62,54H48v-8h14V54z"/><rect class="st1" height="2" width="18" x="46" y="58"/><path class="st1" d="M58,39v-5c0-2.2-1.8-4-4-4H34v-7h-2v7H12c-2.2,0-4,1.8-4,4v5h2v-5c0-1.1,0.9-2,2-2h20v7h2v-7h20    c1.1,0,2,0.9,2,2v5H58z"/></g></g></svg>