<?xml version="1.0" ?><!DOCTYPE svg  PUBLIC '-//W3C//DTD SVG 1.1//EN'  'http://www.w3.org/Graphics/SVG/1.1/DTD/svg11.dtd'><svg enable-background="new 0 0 64 64" height="64px" id="Layer_1" version="1.1" viewBox="0 0 64 64" width="64px" xml:space="preserve" xmlns="http://www.w3.org/2000/svg" xmlns:xlink="http://www.w3.org/1999/xlink"><g><g><polyline fill="none" points="28,40 49,40 49,10 7,10 7,33   " stroke="#403E3E" stroke-miterlimit="10" stroke-width="2"/><g><polyline fill="none" points="45,36 31,22 25,28    " stroke="#403E3E" stroke-miterlimit="10" stroke-width="2"/><polyline fill="none" points="28,31 23,26 13,36    " stroke="#403E3E" stroke-miterlimit="10" stroke-width="2"/><circle cx="23" cy="20" fill="none" r="2.5" stroke="#403E3E" stroke-miterlimit="10" stroke-width="2"/></g><polyline fill="none" points="11,33 11,14 45,14 45,36 28,36   " stroke="#403E3E" stroke-miterlimit="10" stroke-width="2"/></g><g><rect fill="none" height="18" stroke="#403E3E" stroke-miterlimit="10" stroke-width="2" width="24" x="1" y="36"/><polygon fill="none" points="10,42 11,42 16,45 11,48 10,48   " stroke="#403E3E" stroke-miterlimit="10" stroke-width="2"/></g><g><g><line fill="none" stroke="#403E3E" stroke-miterlimit="10" stroke-width="2" x1="52" x2="60" y1="24" y2="24"/><line fill="none" stroke="#403E3E" stroke-miterlimit="10" stroke-width="2" x1="52" x2="60" y1="28" y2="28"/><line fill="none" stroke="#403E3E" stroke-miterlimit="10" stroke-width="2" x1="52" x2="60" y1="32" y2="32"/><line fill="none" stroke="#403E3E" stroke-miterlimit="10" stroke-width="2" x1="52" x2="60" y1="36" y2="36"/><line fill="none" stroke="#403E3E" stroke-miterlimit="10" stroke-width="2" x1="52" x2="60" y1="40" y2="40"/><line fill="none" stroke="#403E3E" stroke-miterlimit="10" stroke-width="2" x1="34" x2="60" y1="44" y2="44"/><line fill="none" stroke="#403E3E" stroke-miterlimit="10" stroke-width="2" x1="34" x2="60" y1="48" y2="48"/><line fill="none" stroke="#403E3E" stroke-miterlimit="10" stroke-width="2" x1="34" x2="60" y1="52" y2="52"/><line fill="none" stroke="#403E3E" stroke-miterlimit="10" stroke-width="2" x1="34" x2="50" y1="56" y2="56"/></g><polyline fill="none" points="52,20 63,20 63,60 31,60 31,43   " stroke="#403E3E" stroke-miterlimit="10" stroke-width="2"/></g><line fill="none" stroke="#403E3E" stroke-miterlimit="10" stroke-width="2" x1="44" x2="46" y1="3" y2="3"/><g><rect fill="none" height="8" stroke="#403E3E" stroke-miterlimit="10" stroke-width="2" width="8" x="53" y="4"/><line fill="none" stroke="#403E3E" stroke-miterlimit="10" stroke-width="2" x1="56" x2="58" y1="8" y2="8"/></g><g><polyline fill="none" points="3,14 3,6 11,6   " stroke="#403E3E" stroke-miterlimit="10" stroke-width="2"/><line fill="none" stroke="#403E3E" stroke-miterlimit="10" stroke-width="2" x1="13" x2="15" y1="6" y2="6"/><line fill="none" stroke="#403E3E" stroke-miterlimit="10" stroke-width="2" x1="17" x2="19" y1="6" y2="6"/></g><g><line fill="none" stroke="#403E3E" stroke-miterlimit="10" stroke-width="2" x1="20" x2="22" y1="60" y2="60"/><line fill="none" stroke="#403E3E" stroke-miterlimit="10" stroke-width="2" x1="16" x2="18" y1="60" y2="60"/><line fill="none" stroke="#403E3E" stroke-miterlimit="10" stroke-width="2" x1="24" x2="26" y1="60" y2="60"/></g></g></svg>