<?xml version="1.0" ?><svg height="48px" id="Layer_1" style="enable-background:new 0 0 48 48;" version="1.1" viewBox="0 0 48 48" width="48px" xml:space="preserve" xmlns="http://www.w3.org/2000/svg" xmlns:xlink="http://www.w3.org/1999/xlink"><style type="text/css">
	.st0{fill:#424242;}
</style><path class="st0" d="M32,2c-1.1046,0-2,0.8954-2,2c0,1.1046,0.8954,2,2,2s2-0.8954,2-2C34,2.8954,33.1046,2,32,2z M32,5  c-0.5514,0-1-0.4486-1-1s0.4486-1,1-1s1,0.4486,1,1S32.5514,5,32,5z M38,2c-1.1046,0-2,0.8954-2,2c0,1.1046,0.8954,2,2,2  s2-0.8954,2-2C40,2.8954,39.1046,2,38,2z M38,5c-0.5514,0-1-0.4486-1-1s0.4486-1,1-1s1,0.4486,1,1S38.5514,5,38,5z M44,2  c-1.1046,0-2,0.8954-2,2c0,1.1046,0.8954,2,2,2s2-0.8954,2-2C46,2.8954,45.1046,2,44,2z M44,5c-0.5514,0-1-0.4486-1-1s0.4486-1,1-1  s1,0.4486,1,1S44.5514,5,44,5z M46,0H2C0.9,0,0,0.9,0,2v36c0,1.1,0.9,2,2,2h20v-1H8V8h39v30c0,0.5514-0.4486,1-1,1h-2v1h2  c1.1,0,2-0.9,2-2V2C48,0.9,47.1,0,46,0z M7,39H2c-0.5514,0-1-0.4486-1-1V8h6V39z M47,7H1V2c0-0.5514,0.4486-1,1-1h44  c0.5514,0,1,0.4486,1,1V7z M10,22h6v1h-6V22z M42,23h-6v-1h6V23z M18,22h16v1H18V22z M10,26h12v1H10V26z M24,27v-1h10v1H24z   M39.8687,33.9597l1.6166-1.6166l-2.8284-2.8285l-1.6167,1.6167c-0.6313-0.3723-1.313-0.6602-2.0402-0.8485V28h-4v2.2828  c-0.7272,0.1884-1.4088,0.4762-2.0402,0.8485l-1.6167-1.6167l-2.8284,2.8285l1.6166,1.6166  c-0.3723,0.6315-0.6602,1.313-0.8485,2.0403H23v4h2.2828c0.1884,0.7273,0.4762,1.4088,0.8485,2.0403l-1.6166,1.6166l2.8284,2.8284  l1.6167-1.6167c0.6315,0.3723,1.313,0.6603,2.0402,0.8486V48h4v-2.2828c0.7272-0.1884,1.4087-0.4763,2.0402-0.8486l1.6167,1.6167  l2.8284-2.8284l-1.6166-1.6166c0.3723-0.6315,0.6602-1.313,0.8485-2.0403H43v-4h-2.2828  C40.5288,35.2727,40.241,34.5912,39.8687,33.9597z M42,39h-1.2828h-0.774l-0.1941,0.7493c-0.1608,0.6211-0.4104,1.221-0.7419,1.7831  l-0.3934,0.6673l0.5477,0.5477l0.9094,0.9095l-1.4141,1.4141l-0.9096-0.9096l-0.5477-0.5477l-0.6672,0.3934  c-0.5624,0.3316-1.1623,0.5812-1.783,0.742L34,44.9432v0.774V47h-2v-1.2828v-0.774l-0.7493-0.1941  c-0.6207-0.1608-1.2206-0.4104-1.783-0.742l-0.6672-0.3934l-0.5477,0.5477l-0.9096,0.9096l-1.4141-1.4141l0.9094-0.9095  l0.5477-0.5477l-0.3934-0.6673c-0.3315-0.5621-0.5811-1.162-0.7419-1.7831L26.0568,39h-0.774H24v-2h1.2828h0.774l0.1941-0.7493  c0.1608-0.621,0.4104-1.2209,0.7419-1.7831l0.3934-0.6672l-0.5477-0.5477l-0.9095-0.9095l1.4142-1.4142l0.9096,0.9095l0.5478,0.5478  l0.6673-0.3936c0.5618-0.3313,1.1617-0.5809,1.7829-0.7418L32,31.0568v-0.774V29h2v1.2828v0.774l0.7493,0.194  c0.6212,0.1609,1.2211,0.4105,1.7829,0.7418l0.6673,0.3936l0.5478-0.5478l0.9096-0.9095l1.4142,1.4142l-0.9095,0.9095  l-0.5477,0.5477l0.3934,0.6672c0.3315,0.5621,0.5811,1.162,0.7419,1.7831L39.9432,37h0.774H42V39z M33,34c-2.2092,0-4,1.7908-4,4  c0,2.2091,1.7908,4,4,4s4-1.7909,4-4C37,35.7908,35.2092,34,33,34z M33,41c-1.6542,0-3-1.3458-3-3c0-1.6542,1.3458-3,3-3  s3,1.3458,3,3C36,39.6542,34.6542,41,33,41z M5,13H3v-1h2V13z M5,18H3v-1h2V18z M5,23H3v-1h2V23z M5,28H3v-1h2V28z M5,33H3v-1h2V33z   M24,18.9409l3.8818-1.9384L24,15.059v-1.1182l5,2.5029v1.1182l-5,2.4971V18.9409z M15,15.059l-3.8818,1.9434L15,18.9409v1.1181  l-5-2.4971v-1.1182l5-2.5029V15.059z M17,16.5h6v0.9999h-6V16.5z"/></svg>