<?xml version="1.0" ?><!DOCTYPE svg  PUBLIC '-//W3C//DTD SVG 1.1//EN'  'http://www.w3.org/Graphics/SVG/1.1/DTD/svg11.dtd'><svg height="64px" id="_x34_3_x5F_inspirating_x5F_idea" style="enable-background:new 0 0 64 64;" version="1.1" viewBox="0 0 64 64" width="64px" xml:space="preserve" xmlns="http://www.w3.org/2000/svg" xmlns:xlink="http://www.w3.org/1999/xlink"><g><line style="fill:none;stroke:#222829;stroke-width:2;stroke-linejoin:round;stroke-miterlimit:10;" x1="13" x2="15" y1="22" y2="22"/><line style="fill:none;stroke:#222829;stroke-width:2;stroke-linejoin:round;stroke-miterlimit:10;" x1="8" x2="10" y1="19" y2="19"/><line style="fill:none;stroke:#222829;stroke-width:2;stroke-linejoin:round;stroke-miterlimit:10;" x1="3" x2="5" y1="16" y2="16"/><line style="fill:none;stroke:#222829;stroke-width:2;stroke-linejoin:round;stroke-miterlimit:10;" x1="21" x2="23" y1="14" y2="14"/><line style="fill:none;stroke:#222829;stroke-width:2;stroke-linejoin:round;stroke-miterlimit:10;" x1="18" x2="20" y1="9" y2="9"/><line style="fill:none;stroke:#222829;stroke-width:2;stroke-linejoin:round;stroke-miterlimit:10;" x1="15" x2="17" y1="4" y2="4"/><line style="fill:none;stroke:#222829;stroke-width:2;stroke-linejoin:round;stroke-miterlimit:10;" x1="31" x2="33" y1="6" y2="6"/><line style="fill:none;stroke:#222829;stroke-width:2;stroke-linejoin:round;stroke-miterlimit:10;" x1="31" x2="33" y1="11" y2="11"/><line style="fill:none;stroke:#222829;stroke-width:2;stroke-linejoin:round;stroke-miterlimit:10;" x1="31" x2="33" y1="1" y2="1"/><line style="fill:none;stroke:#222829;stroke-width:2;stroke-linejoin:round;stroke-miterlimit:10;" x1="51" x2="49" y1="22" y2="22"/><line style="fill:none;stroke:#222829;stroke-width:2;stroke-linejoin:round;stroke-miterlimit:10;" x1="56" x2="54" y1="19" y2="19"/><line style="fill:none;stroke:#222829;stroke-width:2;stroke-linejoin:round;stroke-miterlimit:10;" x1="61" x2="59" y1="16" y2="16"/><line style="fill:none;stroke:#222829;stroke-width:2;stroke-linejoin:round;stroke-miterlimit:10;" x1="43" x2="41" y1="14" y2="14"/><line style="fill:none;stroke:#222829;stroke-width:2;stroke-linejoin:round;stroke-miterlimit:10;" x1="46" x2="44" y1="9" y2="9"/><line style="fill:none;stroke:#222829;stroke-width:2;stroke-linejoin:round;stroke-miterlimit:10;" x1="49" x2="47" y1="4" y2="4"/><line style="fill:none;stroke:#222829;stroke-width:2;stroke-linejoin:round;stroke-miterlimit:10;" x1="5" x2="7" y1="32" y2="32"/><line style="fill:none;stroke:#222829;stroke-width:2;stroke-linejoin:round;stroke-miterlimit:10;" x1="10" x2="12" y1="32" y2="32"/><line style="fill:none;stroke:#222829;stroke-width:2;stroke-linejoin:round;stroke-miterlimit:10;" x1="0" x2="2" y1="32" y2="32"/><line style="fill:none;stroke:#222829;stroke-width:2;stroke-linejoin:round;stroke-miterlimit:10;" x1="13" x2="15" y1="42" y2="42"/><line style="fill:none;stroke:#222829;stroke-width:2;stroke-linejoin:round;stroke-miterlimit:10;" x1="8" x2="10" y1="45" y2="45"/><line style="fill:none;stroke:#222829;stroke-width:2;stroke-linejoin:round;stroke-miterlimit:10;" x1="3" x2="5" y1="48" y2="48"/><line style="fill:none;stroke:#222829;stroke-width:2;stroke-linejoin:round;stroke-miterlimit:10;" x1="21" x2="23" y1="50" y2="50"/><line style="fill:none;stroke:#222829;stroke-width:2;stroke-linejoin:round;stroke-miterlimit:10;" x1="18" x2="20" y1="55" y2="55"/><line style="fill:none;stroke:#222829;stroke-width:2;stroke-linejoin:round;stroke-miterlimit:10;" x1="15" x2="17" y1="60" y2="60"/><line style="fill:none;stroke:#222829;stroke-width:2;stroke-linejoin:round;stroke-miterlimit:10;" x1="31" x2="33" y1="58" y2="58"/><line style="fill:none;stroke:#222829;stroke-width:2;stroke-linejoin:round;stroke-miterlimit:10;" x1="31" x2="33" y1="53" y2="53"/><line style="fill:none;stroke:#222829;stroke-width:2;stroke-linejoin:round;stroke-miterlimit:10;" x1="31" x2="33" y1="63" y2="63"/><line style="fill:none;stroke:#222829;stroke-width:2;stroke-linejoin:round;stroke-miterlimit:10;" x1="59" x2="57" y1="32" y2="32"/><line style="fill:none;stroke:#222829;stroke-width:2;stroke-linejoin:round;stroke-miterlimit:10;" x1="54" x2="52" y1="32" y2="32"/><line style="fill:none;stroke:#222829;stroke-width:2;stroke-linejoin:round;stroke-miterlimit:10;" x1="64" x2="62" y1="32" y2="32"/><line style="fill:none;stroke:#222829;stroke-width:2;stroke-linejoin:round;stroke-miterlimit:10;" x1="51" x2="49" y1="42" y2="42"/><line style="fill:none;stroke:#222829;stroke-width:2;stroke-linejoin:round;stroke-miterlimit:10;" x1="56" x2="54" y1="45" y2="45"/><line style="fill:none;stroke:#222829;stroke-width:2;stroke-linejoin:round;stroke-miterlimit:10;" x1="61" x2="59" y1="48" y2="48"/><line style="fill:none;stroke:#222829;stroke-width:2;stroke-linejoin:round;stroke-miterlimit:10;" x1="43" x2="41" y1="50" y2="50"/><line style="fill:none;stroke:#222829;stroke-width:2;stroke-linejoin:round;stroke-miterlimit:10;" x1="46" x2="44" y1="55" y2="55"/><line style="fill:none;stroke:#222829;stroke-width:2;stroke-linejoin:round;stroke-miterlimit:10;" x1="49" x2="47" y1="60" y2="60"/><g><path d="M37,38c0-4,5-5,5-12c0-5-4.477-9-10-9s-10,4-10,9    c0,7,5,8,5,12" style="fill:none;stroke:#222829;stroke-width:2;stroke-miterlimit:10;"/><line style="fill:none;stroke:#222829;stroke-width:2;stroke-miterlimit:10;" x1="29" x2="29" y1="45" y2="41"/><line style="fill:none;stroke:#222829;stroke-width:2;stroke-miterlimit:10;" x1="35" x2="35" y1="41" y2="45"/><line style="fill:none;stroke:#222829;stroke-width:2;stroke-miterlimit:10;" x1="38" x2="26" y1="41" y2="41"/><line style="fill:none;stroke:#222829;stroke-width:2;stroke-miterlimit:10;" x1="38" x2="26" y1="45" y2="45"/><polyline points="35,45 33,47 31,47 29,45   " style="fill:none;stroke:#222829;stroke-width:2;stroke-miterlimit:10;"/><line style="fill:none;stroke:#222829;stroke-width:2;stroke-miterlimit:10;" x1="32" x2="32" y1="40" y2="27"/><circle cx="32" cy="27" r="1" style="fill:none;stroke:#222829;stroke-width:2;stroke-miterlimit:10;"/><circle cx="32" cy="27" r="5" style="fill:none;stroke:#222829;stroke-width:2;stroke-miterlimit:10;"/></g></g></svg>