<?xml version="1.0" ?><!DOCTYPE svg  PUBLIC '-//W3C//DTD SVG 1.1//EN'  'http://www.w3.org/Graphics/SVG/1.1/DTD/svg11.dtd'><svg height="32px" id="Layer_1" style="enable-background:new 0 0 32 32;" version="1.1" viewBox="0 0 32 32" width="32px" xml:space="preserve" xmlns="http://www.w3.org/2000/svg" xmlns:xlink="http://www.w3.org/1999/xlink"><g transform="translate(0 144)"><path d="M2-114h30v2H0v-32h4v2H2v4h2v2H2v4h2v2H2v4h2v2H2v4h2v2H2V-114z M24.916-130.962C24.801-129.195,24.656-127,24-127   c-1.17,0-1.49-0.636-2.051-2.316C21.43-130.871,20.721-133,18-133c-2.848,0-3.451,3.633-3.985,6.836   C13.631-123.863,13.155-121,12-121c-2.041,0-2.996-5.371-3-9H7c0,1.125,0.142,11,5,11c2.849,0,3.452-3.631,3.986-6.837   C16.371-128.138,16.846-131,18-131c1.17,0,1.49,0.635,2.051,2.315C20.571-127.129,21.28-125,24-125   c2.529,0,2.726-2.966,2.912-5.828C27.226-135.613,27.773-139,32-139v-2C25.572-141,25.178-134.958,24.916-130.962z"/></g></svg>