<?xml version="1.0" ?><!DOCTYPE svg  PUBLIC '-//W3C//DTD SVG 1.1//EN'  'http://www.w3.org/Graphics/SVG/1.1/DTD/svg11.dtd'><svg height="64px" id="_x33_5_x5F_data_x5F_insight" style="enable-background:new 0 0 42 64;" version="1.1" viewBox="0 0 42 64" width="42px" xml:space="preserve" xmlns="http://www.w3.org/2000/svg" xmlns:xlink="http://www.w3.org/1999/xlink"><g><g><path d="M28,55v3c0,0.55-0.45,1-1,1H15    c-0.55,0-1-0.45-1-1v-3" style="fill:none;stroke:#222829;stroke-width:2;stroke-miterlimit:10;"/></g><g><path d="M24,59v3c0,0.55-0.45,1-1,1h-4    c-0.55,0-1-0.45-1-1v-3" style="fill:none;stroke:#222829;stroke-width:2;stroke-miterlimit:10;"/></g><line style="fill:none;stroke:#222829;stroke-width:2;stroke-miterlimit:10;" x1="31" x2="11" y1="55" y2="55"/><line style="fill:none;stroke:#222829;stroke-width:2;stroke-miterlimit:10;" x1="11" x2="31" y1="51" y2="51"/><line style="fill:none;stroke:#222829;stroke-width:2;stroke-miterlimit:10;" x1="26" x2="28" y1="19" y2="19"/><line style="fill:none;stroke:#222829;stroke-width:2;stroke-miterlimit:10;" x1="30" x2="32" y1="23" y2="23"/><line style="fill:none;stroke:#222829;stroke-width:2;stroke-miterlimit:10;" x1="22" x2="24" y1="19" y2="19"/><line style="fill:none;stroke:#222829;stroke-width:2;stroke-miterlimit:10;" x1="30" x2="32" y1="19" y2="19"/><line style="fill:none;stroke:#222829;stroke-width:2;stroke-miterlimit:10;" x1="30" x2="32" y1="27" y2="27"/><line style="fill:none;stroke:#222829;stroke-width:2;stroke-miterlimit:10;" x1="14" x2="16" y1="23" y2="23"/><line style="fill:none;stroke:#222829;stroke-width:2;stroke-miterlimit:10;" x1="10" x2="12" y1="23" y2="23"/><line style="fill:none;stroke:#222829;stroke-width:2;stroke-miterlimit:10;" x1="18" x2="20" y1="23" y2="23"/><line style="fill:none;stroke:#222829;stroke-width:2;stroke-miterlimit:10;" x1="14" x2="16" y1="27" y2="27"/><line style="fill:none;stroke:#222829;stroke-width:2;stroke-miterlimit:10;" x1="10" x2="12" y1="27" y2="27"/><line style="fill:none;stroke:#222829;stroke-width:2;stroke-miterlimit:10;" x1="10" x2="12" y1="19" y2="19"/><line style="fill:none;stroke:#222829;stroke-width:2;stroke-miterlimit:10;" x1="26" x2="28" y1="15" y2="15"/><line style="fill:none;stroke:#222829;stroke-width:2;stroke-miterlimit:10;" x1="22" x2="24" y1="15" y2="15"/><line style="fill:none;stroke:#222829;stroke-width:2;stroke-miterlimit:10;" x1="30" x2="32" y1="15" y2="15"/><line style="fill:none;stroke:#222829;stroke-width:2;stroke-miterlimit:10;" x1="10" x2="12" y1="15" y2="15"/><line style="fill:none;stroke:#222829;stroke-width:2;stroke-miterlimit:10;" x1="26" x2="28" y1="11" y2="11"/><line style="fill:none;stroke:#222829;stroke-width:2;stroke-miterlimit:10;" x1="22" x2="24" y1="11" y2="11"/><line style="fill:none;stroke:#222829;stroke-width:2;stroke-miterlimit:10;" x1="14" x2="16" y1="11" y2="11"/><line style="fill:none;stroke:#222829;stroke-width:2;stroke-miterlimit:10;" x1="18" x2="20" y1="11" y2="11"/><line style="fill:none;stroke:#222829;stroke-width:2;stroke-miterlimit:10;" x1="26" x2="28" y1="31" y2="31"/><line style="fill:none;stroke:#222829;stroke-width:2;stroke-miterlimit:10;" x1="22" x2="24" y1="31" y2="31"/><line style="fill:none;stroke:#222829;stroke-width:2;stroke-miterlimit:10;" x1="14" x2="16" y1="31" y2="31"/><line style="fill:none;stroke:#222829;stroke-width:2;stroke-miterlimit:10;" x1="18" x2="20" y1="31" y2="31"/><line style="fill:none;stroke:#222829;stroke-width:2;stroke-miterlimit:10;" x1="18" x2="20" y1="27" y2="27"/><rect height="4" style="fill:none;stroke:#222829;stroke-width:2;stroke-miterlimit:10;" width="4" x="15" y="15"/><rect height="4" style="fill:none;stroke:#222829;stroke-width:2;stroke-miterlimit:10;" width="4" x="23" y="23"/><path d="M6,24l-5-3   c0,6.543,3.141,12.352,7.998,16L12,47h18l3-10" style="fill:none;stroke:#222829;stroke-width:2;stroke-linejoin:round;stroke-miterlimit:10;"/><path d="M26,36l-5,5   c11.046,0,20-8.954,20-20c0-2.09-0.32-4.105-0.915-5.999c-0.688-2.188-1.739-4.213-3.086-6.005" style="fill:none;stroke:#222829;stroke-width:2;stroke-linejoin:round;stroke-miterlimit:10;"/><path d="M27,7l6-2l-0.001-0.003   C29.656,2.487,25.502,1,21,1C12.071,1,4.571,6.924,2,15" style="fill:none;stroke:#222829;stroke-width:2;stroke-linejoin:round;stroke-miterlimit:10;"/></g></svg>