<?xml version="1.0" ?><!DOCTYPE svg  PUBLIC '-//W3C//DTD SVG 1.1//EN'  'http://www.w3.org/Graphics/SVG/1.1/DTD/svg11.dtd'><svg enable-background="new 0 0 64 64" height="64px" id="Layer_1" version="1.1" viewBox="0 0 64 64" width="64px" xml:space="preserve" xmlns="http://www.w3.org/2000/svg" xmlns:xlink="http://www.w3.org/1999/xlink"><g><path d="M24.8,39.2v22.767H2.034V39.2H24.8 M26.8,37.2H0.034v26.767H26.8V37.2L26.8,37.2z"/><path d="M61.967,2.033v44.71H17.257V2.033H61.967 M63.967,0.033H15.257v48.71h48.709V0.033L63.967,0.033z"/><g><line x1="43.725" x2="59.971" y1="20.275" y2="4.029"/><g><rect height="10.905" transform="matrix(0.7071 0.7071 -0.7071 0.7071 25.5465 -28.8349)" width="2" x="46.58" y="10.967"/><g><path d="M59.971,4.029c-2.525,5.506-4.967,13.031-5.361,18.813l-4.293-9.158l-9.158-4.292      C46.939,8.997,54.467,6.557,59.971,4.029z"/></g></g></g></g></svg>