<?xml version="1.0" ?><svg height="96px" style="enable-background:new 0 0 96 96;" version="1.1" viewBox="0 0 96 96" width="96px" xml:space="preserve" xmlns="http://www.w3.org/2000/svg" xmlns:xlink="http://www.w3.org/1999/xlink"><g id="product_backlog"/><g id="Layer_32"/><g id="Layer_33"/><g id="Layer_35"/><g id="Layer_36"/><g id="Layer_25"/><g id="Layer_31"/><g id="Layer_26"/><g id="Layer_27"><g id="New_Symbol_6_"/></g><g id="Layer_28"><g id="New_Symbol_5_"/><g id="New_Symbol_4_"/></g><g id="Layer_29"><g id="New_Symbol_3_"/><g id="New_Symbol_2_"/><g id="New_Symbol_1_"/><g id="New_Symbol"/></g><g id="Layer_30"/><g id="Layer_23"/><g id="Layer_38"/><g id="Layer_37"/><g id="Layer_9"/><g id="Layer_39"/><g id="Layer_14"/><g id="Layer_15"/><g id="workflow"/><g id="planing"/><g id="product_backlog_1_"><g id="star"/></g><g id="sprint_backlog"/><g id="Layer_40"/><g id="Layer_41"/><g id="retrospective"/><g id="target"/><g id="velocity"/><g id="Layer_42"/><g id="estimate"/><g id="calculator"/><g id="stopwatch"/><g id="poker"/><g id="user_story"><g><g><g><g><path d="M62.856,95.161c-1.069,0-2.014-0.838-2.069-1.894c-0.002-0.042-0.04-0.083-0.04-0.123       c0-0.098-0.011-0.196,0.003-0.292c0.14-0.968,1.108-1.712,2.115-1.712c1.104,0,2.135,0.896,2.135,2v0.021       C65,94.266,63.96,95.161,62.856,95.161z" style="fill:#383838;"/></g></g></g><g><g><g><path d="M62.036,96H33.964C32.594,96,31,94.76,31,93.161c0-7.35,5.081-13.679,12.356-15.413       c0.453-0.108,0.928-0.055,1.346,0.151c0.957,0.47,2.158,0.74,3.297,0.74c1.093,0,2.153-0.249,3.152-0.74       c0.418-0.205,0.896-0.257,1.347-0.15c7.182,1.715,12.204,8.045,12.212,15.393C64.702,94.53,63.625,96,62.036,96z M35.056,92       h25.6c-0.461-4.772-3.781-8.805-8.45-10.19c-2.717,1.115-5.893,1.063-8.553-0.003C38.9,83.201,35.524,87.232,35.056,92z" style="fill:#383838;"/></g></g></g></g><path d="M90,0H6C2.691,0,0,2.691,0,6v36c0,3.309,2.691,6,6,6h29.858l10.728,10.728   c0.39,0.391,0.902,0.586,1.414,0.586s1.024-0.195,1.414-0.586L60.142,48H90c3.309,0,6-2.691,6-6V6C96,2.691,93.309,0,90,0z M92,42   c0,1.103-0.897,2-2,2H59.313c-0.053,0-0.105,0.011-0.158,0.016C59.103,44.012,59.053,44,59,44h-8c-1.104,0-2,0.896-2,2s0.896,2,2,2   h3.485L48,54.485l-9.899-9.899C37.726,44.211,37.217,44,36.687,44H6c-1.103,0-2-0.897-2-2V6c0-1.103,0.897-2,2-2h84   c1.103,0,2,0.897,2,2V42z" style="fill:#383838;"/><g><g><g><g><g><path d="M56,14H23c-1.104,0-2-0.896-2-2s0.896-2,2-2h33c1.104,0,2,0.896,2,2S57.104,14,56,14z" style="fill:#383838;"/></g></g></g><g><g><g><path d="M86,14H63c-1.104,0-2-0.896-2-2s0.896-2,2-2h23c1.104,0,2,0.896,2,2S87.104,14,86,14z" style="fill:#007AFF;"/></g></g></g></g><g><g><g><g><path d="M37,26H10c-1.104,0-2-0.896-2-2s0.896-2,2-2h27c1.104,0,2,0.896,2,2S38.104,26,37,26z" style="fill:#007AFF;"/></g></g></g><g><g><g><path d="M72,26H45c-1.104,0-2-0.896-2-2s0.896-2,2-2h27c1.104,0,2,0.896,2,2S73.104,26,72,26z" style="fill:#383838;"/></g></g></g><g><g><g><path d="M86,26h-6c-1.104,0-2-0.896-2-2s0.896-2,2-2h6c1.104,0,2,0.896,2,2S87.104,26,86,26z" style="fill:#383838;"/></g></g></g></g><g><g><g><g><path d="M48,38H10c-1.104,0-2-0.896-2-2s0.896-2,2-2h38c1.104,0,2,0.896,2,2S49.104,38,48,38z" style="fill:#383838;"/></g></g></g><g><g><g><path d="M75,38H58c-1.104,0-2-0.896-2-2s0.896-2,2-2h17c1.104,0,2,0.896,2,2S76.104,38,75,38z" style="fill:#007AFF;"/></g></g></g></g></g><g><g><g><path d="M48,82.64c-6.158,0-11.167-5.01-11.167-11.167S41.842,60.305,48,60.305      s11.167,5.009,11.167,11.167S54.158,82.64,48,82.64z M48,64.305c-3.952,0-7.167,3.215-7.167,7.167      c0,3.952,3.215,7.167,7.167,7.167s7.167-3.215,7.167-7.167C55.167,67.521,51.952,64.305,48,64.305z" style="fill:#383838;"/></g></g></g></g><g id="Layer_7"/><g id="Layer_6"/></svg>