<?xml version="1.0" ?><svg enable-background="new 0 0 64 64" version="1.1" viewBox="0 0 64 64" xml:space="preserve" xmlns="http://www.w3.org/2000/svg" xmlns:xlink="http://www.w3.org/1999/xlink"><g id="s2"><g><path d="M59.195,49.707V12.914c0-0.88-0.72-1.6-1.6-1.6H6.415c-0.88,0-1.6,0.72-1.6,1.6v36.794    C4.816,49.707,59.329,49.707,59.195,49.707z"/></g><g><rect height="34.394" width="50.381" x="6.815" y="13.314"/></g><g><rect fill="#D8D8D8" height="1" width="63.989" x="0" y="49.707"/></g><g><polygon fill="#AAAAAA" points="60.801,52.707 3.211,52.707 0.011,50.707 64,50.707   "/></g><g opacity="0.7"><path d="M37.374,49.707H26.615c0.102,0.561,0.603,1,1.229,1h8.3C36.771,50.707,37.272,50.269,37.374,49.707z" fill="#FFFFFF"/></g><g><rect fill="#FFFFFF" height="4.068" width="1.941" x="11.549" y="26.952"/></g><g><rect fill="#FFFFFF" height="6.394" width="1.941" x="14.704" y="24.627"/></g><g><rect fill="#FFFFFF" height="9.009" width="1.941" x="17.858" y="22.011"/></g><g><rect fill="#FFFFFF" height="11.624" width="1.941" x="21.012" y="19.396"/></g><g><rect fill="#FFFFFF" height="13.368" width="1.941" x="24.167" y="17.652"/></g><g><path d="M41.552,20.362c-5.746,0-10.405,4.658-10.405,10.405c0,5.746,4.658,10.405,10.405,10.405    c5.744,0,10.401-4.654,10.405-10.397H41.552V20.362z" fill="#0BA4E0"/></g><g><path d="M50.77,21.556l-7.361,7.361h10.405c0-0.003,0-0.005,0-0.008C53.814,26.038,52.651,23.439,50.77,21.556z" fill="#FFFFFF"/></g><g><path d="M43.409,18.505v10.412l7.361-7.361C48.887,19.671,46.284,18.505,43.409,18.505z" fill="#E2E2E2"/></g><g><polygon fill="#0BA4E0" points="10.952,43.398 10.187,42.756 15.921,35.915 20.9,41.234 25.283,36.006 26.049,36.648     20.941,42.742 15.962,37.423   "/></g><g><polygon points="23.9,35.778 27.088,34.878 26.233,38.235   "/></g></g></svg>