<?xml version="1.0" encoding="utf-8"?>
<!-- Generator: Adobe Illustrator 18.1.0, SVG Export Plug-In . SVG Version: 6.00 Build 0)  -->
<svg version="1.1" id="Layer_1" xmlns="http://www.w3.org/2000/svg" xmlns:xlink="http://www.w3.org/1999/xlink" x="0px" y="0px"
	 viewBox="-281 404.9 32 32" enable-background="new -281 404.9 32 32" xml:space="preserve">
<g>
	<path fill="#FFFFFF" d="M-269,421.9h-8v-2c0-4.1,2.2-8.2,6-9.6v-4.4c-6.2,1.7-10,7.7-10,14v4v10c0,1.1,0.9,2,2,2h10
		c1.1,0,2-0.9,2-2v-10C-267,422.8-267.9,421.9-269,421.9z"/>
	<path fill="#FFFFFF" d="M-251,421.9h-8v-2c0-4.1,2.2-8.2,6-9.6v-4.4c-6.2,1.7-10,7.7-10,14v4v10c0,1.1,0.9,2,2,2h10
		c1.1,0,2-0.9,2-2v-10C-249,422.8-249.9,421.9-251,421.9z"/>
</g>
</svg>
