<?xml version="1.0" ?><!DOCTYPE svg  PUBLIC '-//W3C//DTD SVG 1.0//EN'  'http://www.w3.org/TR/2001/REC-SVG-20010904/DTD/svg10.dtd'><svg enable-background="new 0 0 32 32" height="32px" id="Layer_1" version="1.0" viewBox="0 0 32 32" width="32px" xml:space="preserve" xmlns="http://www.w3.org/2000/svg" xmlns:xlink="http://www.w3.org/1999/xlink"><g><path d="M12,17H4v-2c0-4.098,2.188-8.188,6-9.562V1C3.812,2.688,0,8.66,0,15v4v10c0,1.105,0.895,2,2,2h10c1.105,0,2-0.895,2-2V19   C14,17.896,13.105,17,12,17z"/><path d="M30,17h-8v-2c0-4.098,2.188-8.188,6-9.562V1c-6.188,1.688-10,7.66-10,14v4v10c0,1.105,0.895,2,2,2h10c1.105,0,2-0.895,2-2   V19C32,17.896,31.105,17,30,17z"/></g><g/><g/><g/><g/><g/><g/><g/><g/><g/><g/><g/><g/><g/><g/><g/></svg>