<?xml version="1.0" ?><!DOCTYPE svg  PUBLIC '-//W3C//DTD SVG 1.0//EN'  'http://www.w3.org/TR/2001/REC-SVG-20010904/DTD/svg10.dtd'><svg enable-background="new 0 0 32 32" height="32px" id="Layer_1" version="1.0" viewBox="0 0 32 32" width="32px" xml:space="preserve" xmlns="http://www.w3.org/2000/svg" xmlns:xlink="http://www.w3.org/1999/xlink"><g><path d="M20,15h8v1.999c0,4.1-2.188,8.188-6,9.562v4.438c6.188-1.688,10-7.656,10-14v-4v-10C32,1.896,31.105,1,30,1H20   c-1.105,0-2,0.896-2,1.999v10C18,14.104,18.895,15,20,15z"/><path d="M2,15h8v1.999c0,4.1-2,8.188-6,9.562v4.438c6-1.688,10-7.656,10-14v-4v-10C14,1.896,13.106,1,12,1H2   C0.895,1,0,1.896,0,2.999v10C0,14.104,0.895,15,2,15z"/></g><g/><g/><g/><g/><g/><g/><g/><g/><g/><g/><g/><g/><g/><g/><g/></svg>