<?xml version="1.0" encoding="utf-8"?>
<!-- Generator: Adobe Illustrator 18.1.0, SVG Export Plug-In . SVG Version: 6.00 Build 0)  -->
<svg version="1.1" id="Layer_1" xmlns="http://www.w3.org/2000/svg" xmlns:xlink="http://www.w3.org/1999/xlink" x="0px" y="0px"
	 viewBox="-281 404.9 32 32" enable-background="new -281 404.9 32 32" xml:space="preserve">
<g>
	<path fill="#FFFFFF" d="M-261,419.9h8v2c0,4.1-2.2,8.2-6,9.6v4.4c6.2-1.7,10-7.7,10-14v-4v-10c0-1.1-0.9-2-2-2h-10
		c-1.1,0-2,0.9-2,2v10C-263,419-262.1,419.9-261,419.9z"/>
	<path fill="#FFFFFF" d="M-279,419.9h8v2c0,4.1-2,8.2-6,9.6v4.4c6-1.7,10-7.7,10-14v-4v-10c0-1.1-0.9-2-2-2h-10c-1.1,0-2,0.9-2,2v10
		C-281,419-280.1,419.9-279,419.9z"/>
</g>
</svg>
